<svg width="33" height="32" viewBox="0 0 33 32" fill="none" xmlns="http://www.w3.org/2000/svg">
<path id="Vector" fill-rule="evenodd" clip-rule="evenodd" d="M8.74706 2.90972C10.0657 2.807 11.3176 2.30098 12.3243 1.46372C13.4614 0.518902 14.9061 0 16.3997 0C17.8933 0 19.3381 0.518902 20.4751 1.46372C21.4818 2.30098 22.7337 2.807 24.0524 2.90972C25.5415 3.02583 26.9396 3.65565 27.996 4.68625C29.0524 5.71686 29.6979 7.08086 29.817 8.53372C29.9215 9.81972 30.4402 11.0417 31.2991 12.0237C32.2675 13.133 32.7994 14.5426 32.7994 15.9997C32.7994 17.4569 32.2675 18.8664 31.2991 19.9757C30.4409 20.9579 29.9222 22.1792 29.817 23.4657C29.6979 24.9186 29.0524 26.2826 27.996 27.3132C26.9396 28.3438 25.5415 28.9736 24.0524 29.0897C22.7337 29.1924 21.4818 29.6985 20.4751 30.5357C19.3381 31.4805 17.8933 31.9994 16.3997 31.9994C14.9061 31.9994 13.4614 31.4805 12.3243 30.5357C11.3176 29.6985 10.0657 29.1924 8.74706 29.0897C7.25788 28.9736 5.85978 28.3438 4.80341 27.3132C3.74704 26.2826 3.10148 24.9186 2.98246 23.4657C2.87718 22.1792 2.35851 20.9579 1.50031 19.9757C0.531874 18.8664 0 17.4569 0 15.9997C0 14.5426 0.531874 13.133 1.50031 12.0237C2.35851 11.0415 2.87718 9.82024 2.98246 8.53372C3.10148 7.08086 3.74704 5.71686 4.80341 4.68625C5.85978 3.65565 7.25788 3.02583 8.74706 2.90972ZM23.9991 13.4137C24.3725 13.0365 24.5791 12.5313 24.5744 12.0069C24.5698 11.4825 24.3542 10.9809 23.9741 10.6101C23.594 10.2393 23.0798 10.0289 22.5423 10.0244C22.0048 10.0198 21.487 10.2214 21.1004 10.5857L14.3497 17.1717L11.6991 14.5857C11.3124 14.2214 10.7946 14.0198 10.2571 14.0244C9.71959 14.0289 9.20542 14.2393 8.82533 14.6101C8.44525 14.9809 8.22965 15.4825 8.22498 16.0069C8.22031 16.5313 8.42694 17.0365 8.80036 17.4137L12.9004 21.4137C13.2848 21.7887 13.8061 21.9993 14.3497 21.9993C14.8933 21.9993 15.4146 21.7887 15.7991 21.4137L23.9991 13.4137Z" fill="white"/>
</svg>
