<svg width="91" height="91" viewBox="0 0 91 91" fill="none" xmlns="http://www.w3.org/2000/svg">
<path id="Vector" d="M30.6667 25.7222H60.3333M35.6111 25.7222C37.5591 25.7222 39.4879 26.1059 41.2876 26.8513C43.0872 27.5968 44.7225 28.6894 46.0999 30.0668C47.4773 31.4442 48.5699 33.0794 49.3153 34.8791C50.0608 36.6787 50.4444 38.6076 50.4444 40.5556C50.4444 42.5035 50.0608 44.4324 49.3153 46.232C48.5699 48.0317 47.4773 49.6669 46.0999 51.0443C44.7225 52.4217 43.0872 53.5143 41.2876 54.2598C39.4879 55.0052 37.5591 55.3889 35.6111 55.3889H30.6667L45.5 70.2222M30.6667 40.5556H60.3333M90 45.5C90 51.3438 88.849 57.1304 86.6126 62.5294C84.3763 67.9284 81.0985 72.834 76.9663 76.9663C72.834 81.0985 67.9284 84.3763 62.5294 86.6126C57.1304 88.849 51.3438 90 45.5 90C39.6562 90 33.8696 88.849 28.4706 86.6126C23.0716 84.3763 18.166 81.0985 14.0337 76.9663C9.90154 72.834 6.62369 67.9284 4.38736 62.5294C2.15103 57.1304 1 51.3438 1 45.5C1 33.6979 5.68838 22.3791 14.0337 14.0337C22.3791 5.68838 33.6979 1 45.5 1C57.3021 1 68.6209 5.68838 76.9663 14.0337C85.3116 22.3791 90 33.6979 90 45.5Z" stroke="black" stroke-width="2" stroke-linecap="round" stroke-linejoin="round"/>
</svg>
