<svg width="27" height="27" viewBox="0 0 27 27" fill="none" xmlns="http://www.w3.org/2000/svg">
<path id="Vector" d="M11.97 1.27768C12.4989 -0.425892 14.796 -0.425892 15.3231 1.27768L17.2095 7.36687C17.3248 7.73772 17.5488 8.06084 17.8496 8.29006C18.1504 8.51929 18.5125 8.64288 18.8843 8.64316H24.9877C26.696 8.64316 27.4047 10.9368 26.0243 11.9911L21.088 15.7534C20.7866 15.9828 20.5622 16.3065 20.4469 16.678C20.3316 17.0495 20.3314 17.4497 20.4463 17.8214L22.3327 23.9105C22.8615 25.6141 21.0016 27.0328 19.6177 25.9785L14.6814 22.2162C14.3803 21.9869 14.0178 21.8633 13.6457 21.8633C13.2736 21.8633 12.9111 21.9869 12.6099 22.2162L7.67367 25.9785C6.29151 27.0328 4.43335 25.6141 4.96048 23.9105L6.84684 17.8214C6.96174 17.4497 6.96153 17.0495 6.84625 16.678C6.73097 16.3065 6.50654 15.9828 6.20512 15.7534L1.27061 11.993C-0.109789 10.9386 0.600683 8.64501 2.30723 8.64501H8.40882C8.78089 8.64512 9.14345 8.52171 9.4446 8.29246C9.74575 8.06321 9.97005 7.73987 10.0854 7.36872L11.9718 1.27953L11.97 1.27768Z" fill="#FEB8B8"/>
</svg>
