<svg width="97" height="85" viewBox="0 0 97 85" fill="none" xmlns="http://www.w3.org/2000/svg">
<g id="Frame 82">
<path id="Arrow 1" d="M49.6824 1.17158C48.1203 -0.39052 45.5877 -0.390522 44.0256 1.17158L18.5697 26.6274C17.0076 28.1895 17.0076 30.7222 18.5697 32.2843C20.1318 33.8464 22.6645 33.8464 24.2266 32.2843L46.854 9.65686L69.4814 32.2843C71.0435 33.8464 73.5762 33.8464 75.1383 32.2843C76.7004 30.7222 76.7004 28.1895 75.1383 26.6274L49.6824 1.17158ZM50.854 62.5L50.854 4L42.854 4L42.854 62.5L50.854 62.5Z" fill="black"/>
<path id="Line 11" d="M2.5 44.984L13.5 81.885L86.4346 81.885L94.3973 44.9839" stroke="black" stroke-width="5"/>
</g>
</svg>
